# xmcd
#
# Track frame offsets: 
#        150
#        17055
#        53327
#        76817
#        89465
#        106887
#        127627
#        135415
#        146935
#        171592
#        176402
#        205025
#        228160
#        234667
#        240202
#        248662
#
# Disc length: 3667 seconds
#
# Revision: 4
# Processed by: cddbd v1.5.2PL0 Copyright (c) Steve Scherf et al.
# Submitted via: ExactAudioCopy v0.95b4
#
DISCID=bd0e5110
DTITLE=Ginaluigi Trovesi Ottetto - Fugace
DYEAR=2003
DGENRE=Jazz
TTITLE0=As strange as a ballad
TTITLE1=Sogno d'Orfeo
TTITLE2=African Tryptich, Wild Lake
TTITLE3=African Tryptich, Scarlet Dunes
TTITLE4=African Tryptich, Western Dream
TTITLE5=Canto di lavoro
TTITLE6=Clumsy dancing of the fat bird
TTITLE7=Siparietto I
TTITLE8=Blues and West
TTITLE9=Siparietto II
TTITLE10=Il Domatore
TTITLE11=Ramble
TTITLE12=Siparietto III
TTITLE13=Fugace
TTITLE14=Siparietto IV
TTITLE15=Totò nei Caraibi
EXTD=ECM 1827
EXTT0=
EXTT1=
EXTT2=
EXTT3=
EXTT4=
EXTT5=
EXTT6=
EXTT7=
EXTT8=
EXTT9=
EXTT10=
EXTT11=
EXTT12=
EXTT13=
EXTT14=
EXTT15=
PLAYORDER=
